<?xml version="1.0" encoding="UTF-8" standalone="no"?>
<!-- Generator: Adobe Illustrator 18.0.0, SVG Export Plug-In . SVG Version: 6.00 Build 0)  -->

<svg
   xmlns:dc="http://purl.org/dc/elements/1.1/"
   xmlns:cc="http://creativecommons.org/ns#"
   xmlns:rdf="http://www.w3.org/1999/02/22-rdf-syntax-ns#"
   xmlns:svg="http://www.w3.org/2000/svg"
   xmlns="http://www.w3.org/2000/svg"
   xmlns:sodipodi="http://sodipodi.sourceforge.net/DTD/sodipodi-0.dtd"
   xmlns:inkscape="http://www.inkscape.org/namespaces/inkscape"
   version="1.1"
   id="Capa_1"
   x="0px"
   y="0px"
   viewBox="0 0 297 297"
   style="enable-background:new 0 0 297 297;"
   xml:space="preserve"
   inkscape:version="0.91 r13725"
   sodipodi:docname="storage.svg"><metadata
     id="metadata43"><rdf:RDF><cc:Work
         rdf:about=""><dc:format>image/svg+xml</dc:format><dc:type
           rdf:resource="http://purl.org/dc/dcmitype/StillImage" /></cc:Work></rdf:RDF></metadata><defs
     id="defs41" /><sodipodi:namedview
     pagecolor="#ffffff"
     bordercolor="#666666"
     borderopacity="1"
     objecttolerance="10"
     gridtolerance="10"
     guidetolerance="10"
     inkscape:pageopacity="0"
     inkscape:pageshadow="2"
     inkscape:window-width="1872"
     inkscape:window-height="1054"
     id="namedview39"
     showgrid="false"
     inkscape:zoom="0.79461279"
     inkscape:cx="-100.04873"
     inkscape:cy="148.5"
     inkscape:window-x="48"
     inkscape:window-y="0"
     inkscape:window-maximized="1"
     inkscape:current-layer="g3" /><g
     id="g3"><path
       d="M291.219,78.753L153.176,9.732c-2.943-1.473-6.409-1.473-9.353,0L5.781,78.753C2.238,80.525,0,84.145,0,88.107v189.808   c0,5.775,4.682,10.458,10.458,10.458h34.511c5.775,0,10.458-4.682,10.458-10.458V115.82h186.148v162.095   c0,5.775,4.682,10.458,10.458,10.458h34.511c5.775,0,10.458-4.682,10.458-10.458V88.107C297,84.145,294.762,80.525,291.219,78.753z    M276.085,267.457h-13.595V105.362c0-5.775-4.682-10.458-10.458-10.458H44.968c-5.775,0-10.458,4.682-10.458,10.458v162.095H20.915   V94.57L148.5,30.778L276.085,94.57V267.457z"
       id="path5"
       style="fill:#379774;fill-opacity:1" /><path
       d="M217.521,132.552H148.5c-4.043,0-7.32,3.277-7.32,7.32v61.701H79.479c-4.043,0-7.32,3.277-7.32,7.32v69.021   c0,4.043,3.277,7.32,7.32,7.32h138.042c4.043,0,7.32-3.277,7.32-7.32V139.873C224.842,135.829,221.564,132.552,217.521,132.552z    M155.82,226.568l16.837,16.837l-16.837,16.837V226.568z M141.18,260.241l-16.837-16.837l16.837-16.837V260.241z M166.174,216.214   h33.673l-16.837,16.837L166.174,216.214z M166.174,201.573l16.837-16.837l16.837,16.837H166.174z M210.201,191.22l-16.836-16.837   l16.836-16.837V191.22z M183.011,164.03l-16.837-16.837h33.673L183.011,164.03z M172.657,174.383L155.82,191.22v-33.673   L172.657,174.383z M113.989,233.051l-16.837-16.837h33.673L113.989,233.051z M103.636,243.404l-16.837,16.837v-33.673   L103.636,243.404z M113.989,253.758l16.837,16.837H97.153L113.989,253.758z M183.01,253.758l16.837,16.837h-33.673L183.01,253.758z    M193.364,243.404l16.837-16.837v33.673L193.364,243.404z"
       id="path7"
       style="fill:#379774;fill-opacity:1" /></g><g
     id="g9" /><g
     id="g11" /><g
     id="g13" /><g
     id="g15" /><g
     id="g17" /><g
     id="g19" /><g
     id="g21" /><g
     id="g23" /><g
     id="g25" /><g
     id="g27" /><g
     id="g29" /><g
     id="g31" /><g
     id="g33" /><g
     id="g35" /><g
     id="g37" /></svg>